<svg xmlns="http://www.w3.org/2000/svg" width="440" height="286" viewBox="0 0 440 286" font-family="Segoe UI, Helvetica, Arial, sans-serif">
<rect width="100%" height="100%" fill="#ffffff"/>
<text x="16" y="26" font-size="16" font-weight="600" fill="#111827">Error reduction by language</text>
<text x="16" y="44" font-size="12" fill="#6b7280">MQM points per 100 words removed by the feature (off - on); green = feature helps</text>
<text x="245" y="74" font-size="11" text-anchor="middle" fill="#111827">de</text><text x="355" y="74" font-size="11" text-anchor="middle" fill="#111827">fr</text><text x="182" y="101" font-size="12" text-anchor="end" fill="#111827">review</text><rect x="191" y="85" width="108" height="24" fill="rgba(22,163,74,0.59)"/><text x="245" y="101" font-size="11" text-anchor="middle" fill="#111827">28.7</text><rect x="301" y="85" width="108" height="24" fill="rgba(22,163,74,0.55)"/><text x="355" y="101" font-size="11" text-anchor="middle" fill="#111827">26.7</text><text x="182" y="127" font-size="12" text-anchor="end" fill="#111827">structuralContext</text><rect x="191" y="111" width="108" height="24" fill="rgba(22,163,74,0.11)"/><text x="245" y="127" font-size="11" text-anchor="middle" fill="#111827">0.58</text><rect x="301" y="111" width="108" height="24" fill="rgba(22,163,74,0.10)"/><text x="355" y="127" font-size="11" text-anchor="middle" fill="#111827">0.21</text><text x="182" y="153" font-size="12" text-anchor="end" fill="#111827">codeComments</text><rect x="191" y="137" width="108" height="24" fill="rgba(22,163,74,0.63)"/><text x="245" y="153" font-size="11" text-anchor="middle" fill="#111827">31.2</text><rect x="301" y="137" width="108" height="24" fill="rgba(22,163,74,0.61)"/><text x="355" y="153" font-size="11" text-anchor="middle" fill="#111827">30</text><text x="182" y="179" font-size="12" text-anchor="end" fill="#111827">docstrings</text><rect x="191" y="163" width="108" height="24" fill="rgba(22,163,74,0.56)"/><text x="245" y="179" font-size="11" text-anchor="middle" fill="#111827">26.9</text><rect x="301" y="163" width="108" height="24" fill="rgba(22,163,74,0.50)"/><text x="355" y="179" font-size="11" text-anchor="middle" fill="#111827">23.3</text><text x="182" y="205" font-size="12" text-anchor="end" fill="#111827">frontMatter</text><rect x="191" y="189" width="108" height="24" fill="rgba(22,163,74,0.86)"/><text x="245" y="205" font-size="11" text-anchor="middle" fill="#111827">44.8</text><rect x="301" y="189" width="108" height="24" fill="rgba(22,163,74,0.84)"/><text x="355" y="205" font-size="11" text-anchor="middle" fill="#111827">43.3</text><text x="182" y="231" font-size="12" text-anchor="end" fill="#111827">mdx (.md files)</text><rect x="191" y="215" width="108" height="24" fill="rgba(220,38,38,0.90)"/><text x="245" y="231" font-size="11" text-anchor="middle" fill="#111827">-47</text><rect x="301" y="215" width="108" height="24" fill="rgba(220,38,38,0.82)"/><text x="355" y="231" font-size="11" text-anchor="middle" fill="#111827">-42.4</text><text x="182" y="257" font-size="12" text-anchor="end" fill="#111827">mdx (.mdx files)</text><rect x="191" y="241" width="108" height="24" fill="rgba(22,163,74,0.28)"/><text x="245" y="257" font-size="11" text-anchor="middle" fill="#111827">10.3</text><rect x="301" y="241" width="108" height="24" fill="rgba(22,163,74,0.21)"/><text x="355" y="257" font-size="11" text-anchor="middle" fill="#111827">6.42</text>
</svg>
