<svg xmlns="http://www.w3.org/2000/svg" width="770" height="224" viewBox="0 0 770 224" font-family="Segoe UI, Helvetica, Arial, sans-serif">
<rect width="100%" height="100%" fill="#ffffff"/>
<text x="16" y="26" font-size="16" font-weight="600" fill="#111827">Model tokens per document</text>
<text x="16" y="44" font-size="12" fill="#6b7280">Prompt + completion tokens of the translator (Foundry), mean per document and language</text>
<rect x="190" y="46" width="12" height="12" rx="2" fill="#2563eb"/><text x="207" y="56" font-size="12" fill="#111827">translation</text><rect x="297" y="46" width="12" height="12" rx="2" fill="#f97316"/><text x="314" y="56" font-size="12" fill="#111827">review</text><line x1="190" y1="70" x2="190" y2="190" stroke="#e5e7eb"/><text x="190" y="206" font-size="11" text-anchor="middle" fill="#6b7280">0</text><line x1="320" y1="70" x2="320" y2="190" stroke="#e5e7eb"/><text x="320" y="206" font-size="11" text-anchor="middle" fill="#6b7280">1250</text><line x1="450" y1="70" x2="450" y2="190" stroke="#e5e7eb"/><text x="450" y="206" font-size="11" text-anchor="middle" fill="#6b7280">2500</text><line x1="580" y1="70" x2="580" y2="190" stroke="#e5e7eb"/><text x="580" y="206" font-size="11" text-anchor="middle" fill="#6b7280">3750</text><line x1="710" y1="70" x2="710" y2="190" stroke="#e5e7eb"/><text x="710" y="206" font-size="11" text-anchor="middle" fill="#6b7280">5000</text><text x="182" y="88" font-size="12" text-anchor="end" fill="#111827">default configuration</text><rect x="190" y="70" width="287.248" height="12" fill="#2563eb"/><text x="481.248" y="80" font-size="10" fill="#6b7280">2762</text><rect x="190" y="84" width="328.84799999999996" height="12" fill="#f97316"/><text x="522.848" y="94" font-size="10" fill="#6b7280">3162</text><text x="182" y="126" font-size="12" text-anchor="end" fill="#111827">without review</text><rect x="190" y="108" width="287.248" height="12" fill="#2563eb"/><text x="481.248" y="118" font-size="10" fill="#6b7280">2762</text><rect x="190" y="122" width="0" height="12" fill="#f97316"/><text x="194" y="132" font-size="10" fill="#6b7280">0</text><text x="182" y="164" font-size="12" text-anchor="end" fill="#111827">without structural context</text><rect x="190" y="146" width="287.248" height="12" fill="#2563eb"/><text x="481.248" y="156" font-size="10" fill="#6b7280">2762</text><rect x="190" y="160" width="328.84799999999996" height="12" fill="#f97316"/><text x="522.848" y="170" font-size="10" fill="#6b7280">3162</text><text x="450" y="220" font-size="11" text-anchor="middle" fill="#6b7280">tokens</text>
</svg>
