<svg xmlns="http://www.w3.org/2000/svg" width="750" height="274" viewBox="0 0 750 274" font-family="Segoe UI, Helvetica, Arial, sans-serif">
<rect width="100%" height="100%" fill="#ffffff"/>
<text x="16" y="26" font-size="16" font-weight="600" fill="#111827">Blind pairwise preference (judge panel majority)</text>
<text x="16" y="44" font-size="12" fill="#6b7280">Blocks that differ between on and off; each judged twice with swapped order by 4 judge(s)</text>
<rect x="190" y="50" width="12" height="12" rx="2" fill="#16a34a"/><text x="207" y="60" font-size="12" fill="#111827">feature on better</text><rect x="339" y="50" width="12" height="12" rx="2" fill="#9ca3af"/><text x="356" y="60" font-size="12" fill="#111827">tie / inconsistent</text><rect x="495" y="50" width="12" height="12" rx="2" fill="#dc2626"/><text x="512" y="60" font-size="12" fill="#111827">feature off better</text><text x="182" y="91" font-size="12" text-anchor="end" fill="#111827">review</text><rect x="190" y="78" width="230.8411214953271" height="18" fill="#16a34a"/><text x="305.42056074766356" y="91" font-size="10" text-anchor="middle" fill="#fff">190</text><rect x="420.8411214953271" y="78" width="1.2149532710280373" height="18" fill="#9ca3af"/><rect x="422.05607476635515" y="78" width="1.2149532710280373" height="18" fill="#dc2626"/><text x="182" y="115" font-size="12" text-anchor="end" fill="#111827">structuralContext</text><rect x="190" y="102" width="153.0841121495327" height="18" fill="#16a34a"/><text x="266.5420560747664" y="115" font-size="10" text-anchor="middle" fill="#fff">126</text><rect x="343.0841121495327" y="102" width="249.06542056074764" height="18" fill="#9ca3af"/><text x="467.6168224299065" y="115" font-size="10" text-anchor="middle" fill="#fff">205</text><rect x="592.1495327102804" y="102" width="117.85046728971962" height="18" fill="#dc2626"/><text x="651.0747663551401" y="115" font-size="10" text-anchor="middle" fill="#fff">97</text><text x="182" y="139" font-size="12" text-anchor="end" fill="#111827">codeComments</text><rect x="190" y="126" width="69.25233644859813" height="18" fill="#16a34a"/><text x="224.62616822429908" y="139" font-size="10" text-anchor="middle" fill="#fff">57</text><rect x="259.25233644859816" y="126" width="10.934579439252335" height="18" fill="#9ca3af"/><rect x="270.1869158878505" y="126" width="6.074766355140186" height="18" fill="#dc2626"/><text x="182" y="163" font-size="12" text-anchor="end" fill="#111827">docstrings</text><rect x="190" y="150" width="14.579439252336448" height="18" fill="#16a34a"/><rect x="204.57943925233644" y="150" width="1.2149532710280373" height="18" fill="#9ca3af"/><rect x="205.79439252336448" y="150" width="1.2149532710280373" height="18" fill="#dc2626"/><text x="182" y="187" font-size="12" text-anchor="end" fill="#111827">frontMatter</text><rect x="190" y="174" width="20.654205607476634" height="18" fill="#16a34a"/><rect x="210.65420560747663" y="174" width="3.644859813084112" height="18" fill="#9ca3af"/><text x="182" y="211" font-size="12" text-anchor="end" fill="#111827">mdx (.md files)</text><rect x="190" y="198" width="2.4299065420560746" height="18" fill="#16a34a"/><rect x="192.42990654205607" y="198" width="174.95327102803736" height="18" fill="#dc2626"/><text x="279.9065420560747" y="211" font-size="10" text-anchor="middle" fill="#fff">144</text><text x="182" y="235" font-size="12" text-anchor="end" fill="#111827">mdx (.mdx files)</text><rect x="190" y="222" width="7.289719626168224" height="18" fill="#16a34a"/><rect x="197.28971962616822" y="222" width="9.719626168224298" height="18" fill="#9ca3af"/><rect x="207.00934579439252" y="222" width="3.644859813084112" height="18" fill="#dc2626"/>
</svg>
