<svg xmlns="http://www.w3.org/2000/svg" width="820" height="302" viewBox="0 0 820 302" font-family="Segoe UI, Helvetica, Arial, sans-serif">
<rect width="100%" height="100%" fill="#ffffff"/>
<text x="16" y="26" font-size="16" font-weight="600" fill="#111827">Judged quality: error reduction when the feature is on</text>
<text x="16" y="44" font-size="12" fill="#6b7280">MQM penalty points per 100 source words, (off - on), paired bootstrap 95% CI over judged blocks</text>
<line x1="190" y1="70" x2="190" y2="264" stroke="#e5e7eb"/><text x="190" y="280" font-size="11" text-anchor="middle" fill="#6b7280">-100</text><line x1="305" y1="70" x2="305" y2="264" stroke="#e5e7eb"/><text x="305" y="280" font-size="11" text-anchor="middle" fill="#6b7280">-50</text><line x1="420" y1="70" x2="420" y2="264" stroke="#6b7280" stroke-dasharray="4 3"/><text x="420" y="280" font-size="11" text-anchor="middle" fill="#6b7280">0</text><line x1="535" y1="70" x2="535" y2="264" stroke="#e5e7eb"/><text x="535" y="280" font-size="11" text-anchor="middle" fill="#6b7280">50</text><line x1="650" y1="70" x2="650" y2="264" stroke="#e5e7eb"/><text x="650" y="280" font-size="11" text-anchor="middle" fill="#6b7280">100</text><text x="190" y="64" font-size="11" fill="#dc2626">← feature hurts</text><text x="650" y="64" font-size="11" text-anchor="end" fill="#16a34a">feature helps →</text><text x="182" y="93" font-size="12" text-anchor="end" fill="#111827">review</text><line x1="473.83522310325174" y1="89" x2="493.9767521392103" y2="89" stroke="#16a34a" stroke-width="2"/><line x1="473.83522310325174" y1="84" x2="473.83522310325174" y2="94" stroke="#16a34a" stroke-width="2"/><line x1="493.9767521392103" y1="84" x2="493.9767521392103" y2="94" stroke="#16a34a" stroke-width="2"/><circle cx="483.48734064366585" cy="89" r="5" fill="#16a34a"/><text x="660" y="93" font-size="11" fill="#6b7280">27.6 [23.4, 32.2]</text><text x="182" y="119" font-size="12" text-anchor="end" fill="#111827">structuralContext</text><line x1="419.4801635754094" y1="115" x2="422.2819422726088" y2="115" stroke="#6b7280" stroke-width="2"/><line x1="419.4801635754094" y1="110" x2="419.4801635754094" y2="120" stroke="#6b7280" stroke-width="2"/><line x1="422.2819422726088" y1="110" x2="422.2819422726088" y2="120" stroke="#6b7280" stroke-width="2"/><circle cx="420.93556127823956" cy="115" r="5" fill="#6b7280"/><text x="660" y="119" font-size="11" fill="#6b7280">0.41 [-0.23, 0.99]</text><text x="182" y="145" font-size="12" text-anchor="end" fill="#111827">codeComments</text><line x1="483.853796766455" y1="141" x2="497.05814930660824" y2="141" stroke="#16a34a" stroke-width="2"/><line x1="483.853796766455" y1="136" x2="483.853796766455" y2="146" stroke="#16a34a" stroke-width="2"/><line x1="497.05814930660824" y1="136" x2="497.05814930660824" y2="146" stroke="#16a34a" stroke-width="2"/><circle cx="490.3649226384365" cy="141" r="5" fill="#16a34a"/><text x="660" y="145" font-size="11" fill="#6b7280">30.6 [27.8, 33.5]</text><text x="182" y="171" font-size="12" text-anchor="end" fill="#111827">docstrings</text><line x1="466.726490590969" y1="167" x2="487.66967515364354" y2="167" stroke="#16a34a" stroke-width="2"/><line x1="466.726490590969" y1="162" x2="466.726490590969" y2="172" stroke="#16a34a" stroke-width="2"/><line x1="487.66967515364354" y1="162" x2="487.66967515364354" y2="172" stroke="#16a34a" stroke-width="2"/><circle cx="477.76255707762556" cy="167" r="5" fill="#16a34a"/><text x="660" y="171" font-size="11" fill="#6b7280">25.1 [20.3, 29.4]</text><text x="182" y="197" font-size="12" text-anchor="end" fill="#111827">frontMatter</text><line x1="509.01376488095235" y1="193" x2="541.0132427755409" y2="193" stroke="#16a34a" stroke-width="2"/><line x1="509.01376488095235" y1="188" x2="509.01376488095235" y2="198" stroke="#16a34a" stroke-width="2"/><line x1="541.0132427755409" y1="188" x2="541.0132427755409" y2="198" stroke="#16a34a" stroke-width="2"/><circle cx="521.3269639065818" cy="193" r="5" fill="#16a34a"/><text x="660" y="197" font-size="11" fill="#6b7280">44.1 [38.7, 52.6]</text><text x="182" y="223" font-size="12" text-anchor="end" fill="#111827">mdx (.md files)</text><line x1="304.9495713209009" y1="219" x2="326.88705289153603" y2="219" stroke="#dc2626" stroke-width="2"/><line x1="304.9495713209009" y1="214" x2="304.9495713209009" y2="224" stroke="#dc2626" stroke-width="2"/><line x1="326.88705289153603" y1="214" x2="326.88705289153603" y2="224" stroke="#dc2626" stroke-width="2"/><circle cx="317.26705702647655" cy="219" r="5" fill="#dc2626"/><text x="660" y="223" font-size="11" fill="#6b7280">-44.7 [-50, -40.5]</text><text x="182" y="249" font-size="12" text-anchor="end" fill="#111827">mdx (.mdx files)</text><line x1="408.4360623037094" y1="245" x2="474.7427396997836" y2="245" stroke="#6b7280" stroke-width="2"/><line x1="408.4360623037094" y1="240" x2="408.4360623037094" y2="250" stroke="#6b7280" stroke-width="2"/><line x1="474.7427396997836" y1="240" x2="474.7427396997836" y2="250" stroke="#6b7280" stroke-width="2"/><circle cx="438.9329268292683" cy="245" r="5" fill="#6b7280"/><text x="660" y="249" font-size="11" fill="#6b7280">8.23 [-5.03, 23.8]</text><text x="420" y="296" font-size="11" text-anchor="middle" fill="#6b7280">MQM points per 100 words removed by the feature</text>
</svg>
